<svg width="20" height="20" viewBox="0 0 20 20" fill="none" xmlns="http://www.w3.org/2000/svg">
<path d="M3.22426 14.5089C3.22426 13.6538 3.56396 12.8337 4.16862 12.229C4.77328 11.6244 5.59339 11.2847 6.44851 11.2847H12.897C13.7521 11.2847 14.5722 11.6244 15.1769 12.229C15.7816 12.8337 16.1213 13.6538 16.1213 14.5089C16.1213 14.9365 15.9514 15.3465 15.6491 15.6489C15.3468 15.9512 14.9367 16.121 14.5091 16.121H4.83638C4.40882 16.121 3.99877 15.9512 3.69644 15.6489C3.39411 15.3465 3.22426 14.9365 3.22426 14.5089Z" stroke="#F8FAFC" stroke-width="2" stroke-linejoin="round"/>
<path d="M9.67277 8.0605C11.0083 8.0605 12.091 6.97784 12.091 5.64231C12.091 4.30678 11.0083 3.22412 9.67277 3.22412C8.33724 3.22412 7.25458 4.30678 7.25458 5.64231C7.25458 6.97784 8.33724 8.0605 9.67277 8.0605Z" stroke="#F8FAFC" stroke-width="2"/>
</svg>
